<?xml version="1.0" encoding="iso-8859-1"?>
<!-- Generator: Adobe Illustrator 21.0.0, SVG Export Plug-In . SVG Version: 6.00 Build 0)  -->
<svg version="1.1" id="Layer_1" xmlns="http://www.w3.org/2000/svg" xmlns:xlink="http://www.w3.org/1999/xlink" x="0px" y="0px"
	 viewBox="0 0 24 24" enable-background="new 0 0 24 24" xml:space="preserve">
<g>
	<g id="XMLID_1359_">
		<path fill="#7A3202" d="M11.2926216,14.6856651c0.3546591-0.7624378,1.4696608-2.0056009,3.3008785-3.0083408
			c2.5867786-1.4164143,4.7801476-1.8385944,5.7954292-3.2812595C21.4437122,6.8971834,22.9235268,3.9037139,23,2.9066901
			L19.353756,1c-0.1171284,0.7661742-1.7684536,4.2058191-2.8846893,5.3032212
			C15.297823,7.45469,13.9518671,8.0639105,12.6876793,9.0523415c-1.0183287,0.7961817-2.7686472,3.2802-3.1935616,4.2417765
			L11.2926216,14.6856651z"/>
	</g>
	<path opacity="0.1" d="M20.388916,8.1460571c-1.0152588,1.442688-3.2086182,1.8648682-5.7954102,3.28125
		c-1.8312378,1.0027466-2.946228,2.2459106-3.3009033,3.0083618l-1.7069092-1.3207397
		c-0.0294189,0.0585327-0.0692139,0.1286011-0.0915527,0.1791992l1.7984619,1.3915405
		c0.3546753-0.7624512,1.4696655-2.0056152,3.3009033-3.0083618c2.586792-1.4163818,4.7801514-1.838562,5.7954102-3.28125
		C21.4437256,6.8971558,22.9235229,3.9036865,23,2.9066772C23,2.9066772,21.3788452,6.7393188,20.388916,8.1460571z"/>
	<path opacity="0.2" fill="#FFFFFF" d="M12.6876831,9.3023071c1.2641602-0.9884033,2.6101685-1.5976563,3.7813721-2.7490845
		c1.116272-1.0974121,2.8973503-4.7191887,3.0144768-5.485363L19.3537598,1
		c-0.1171265,0.7661743-1.7684326,4.2058105-2.8847046,5.3032227c-1.1712036,1.1514282-2.5172119,1.7606812-3.7813721,2.7490845
		c-1.0183105,0.7962036-2.7686768,3.2802124-3.1935425,4.2418213l0.0915527,0.0708008
		C10.1149902,12.3105469,11.7229614,10.0566406,12.6876831,9.3023071z"/>
	<path fill="#BF6A1E" d="M4.3724575,13.3037939c2.143609-2.143609,5.3815956-2.3810987,7.2322454-0.530448
		s1.6131611,5.0886364-0.530448,7.2322464C9.6277351,21.4521122,7.1378937,22.9180603,5.5666661,23
		c1.7250433-1.7250423,1.4212608-3.0967083,1.4212608-3.0967083C5.6325364,21.2586823,2.9876249,22.2281456,1,21.1441174
		C3.2935884,18.4782066,2.054431,15.6218204,4.3724575,13.3037939z"/>
	<path opacity="0.1" d="M7.0012817,20.0262451c0.010498-0.2305298-0.0133667-0.3729858-0.0133667-0.3729858
		c-1.322998,1.322998-3.8704834,2.263916-5.8401489,1.3008423C1.0973511,21.017395,1.0542603,21.0810547,1,21.144104
		c1.9876099,1.0840454,4.6325073,0.114563,5.987915-1.2408447C6.987915,19.9032593,6.9951782,19.9541626,7.0012817,20.0262451z"/>
	<path opacity="0.1" d="M11.0742798,19.7555542c-1.37323,1.37323-3.6776733,2.7492065-5.2529297,2.9567871
		C5.7354736,22.8085327,5.6653442,22.9013062,5.5666504,23c1.571228-0.0819702,4.0610962-1.5479126,5.5076294-2.9944458
		c1.1326294-1.1326904,1.7166138-2.5686646,1.7580566-3.9462891C12.7296143,17.3587036,12.1379395,18.6918335,11.0742798,19.7555542
		z"/>
	<path opacity="0.2" fill="#FFFFFF" d="M4.3724365,13.553772c2.1436157-2.1436157,5.3815918-2.3811035,7.2322388-0.5304565
		c0.8728027,0.8728027,1.2646484,2.0563965,1.2276611,3.2859497c0.1043091-1.3191528-0.2953491-2.6036377-1.2276611-3.5359497
		c-1.850647-1.850647-5.088623-1.6131592-7.2322388,0.5304565c-0.8712158,0.8712769-1.2398071,1.8186646-1.4824829,2.8032837
		C3.1698608,15.2158203,3.5704346,14.355835,4.3724365,13.553772z"/>
	<linearGradient id="SVGID_1_" gradientUnits="userSpaceOnUse" x1="5.9792557" y1="9.1186438" x2="17.79072" y2="14.62642">
		<stop  offset="0" style="stop-color:#FFFFFF;stop-opacity:0.2"/>
		<stop  offset="1" style="stop-color:#FFFFFF;stop-opacity:0"/>
	</linearGradient>
	<path fill="url(#SVGID_1_)" d="M19.3537598,1c-0.1171265,0.7661743-1.7684326,4.2058105-2.8847046,5.3032227
		c-1.1712036,1.1514282-2.5172119,1.7606812-3.7813721,2.7490845c-0.6748047,0.5275879-1.6644287,1.7913818-2.3834229,2.8671875
		c-1.8406982-0.7973633-4.2272949-0.3202515-5.9318237,1.3842773C2.0544434,15.6218262,3.2935791,18.4782104,1,21.144104
		c1.9876099,1.0840454,4.6325073,0.114563,5.987915-1.2408447c0,0,0.303772,1.3717041-1.4212646,3.0967407
		c1.571228-0.0819702,4.0610962-1.5479126,5.5076294-2.9944458c1.8876343-1.8876953,2.2930298-4.6217651,1.1000977-6.5120239
		c0.5703735-0.5949707,1.3737793-1.2437744,2.4191284-1.8162231c2.586792-1.4163818,4.7801514-1.838562,5.7954102-3.28125
		C21.4437256,6.8971558,22.9235229,3.9036865,23,2.9066772L19.3537598,1z"/>
</g>
<g>
</g>
<g>
</g>
<g>
</g>
<g>
</g>
<g>
</g>
<g>
</g>
<g>
</g>
<g>
</g>
<g>
</g>
<g>
</g>
<g>
</g>
<g>
</g>
<g>
</g>
<g>
</g>
<g>
</g>
</svg>
