<svg width="216" height="203" viewBox="0 0 216 203" fill="none" xmlns="http://www.w3.org/2000/svg">
<g clip-path="url(#clip0_2_702)">
<path fill-rule="evenodd" clip-rule="evenodd" d="M107.084 131.653C107.039 131.931 106.93 132.196 106.765 132.427C106.6 132.659 106.384 132.851 106.131 132.99C105.623 133.309 105.178 133.468 104.729 133.627C103.77 133.949 102.762 134.27 101.696 134.643C100.571 135.016 99.5624 135.389 98.6626 135.658C97.5404 136.031 96.4738 136.353 95.4602 136.725C94.6976 137.042 93.9812 137.456 93.3297 137.954C92.7237 138.488 92.1949 139.098 91.7576 139.769C91.3077 140.515 91.0245 141.477 91.0245 142.598C91.0245 144.842 91.5856 146.549 92.7104 147.616C93.8325 148.74 95.9127 149.272 98.996 149.272C102.14 149.272 104.273 148.686 105.401 147.511C106.52 146.336 107.081 144.683 107.081 142.549V131.653H107.084ZM98.9987 108C104.504 108 108.545 109.016 111.125 111.098C113.708 113.129 115 115.741 115 118.837V145.215C115 146.282 114.778 147.457 114.386 148.737C113.989 150.022 113.206 151.195 111.97 152.259C110.792 153.331 109.164 154.239 107.087 154.933C105.009 155.627 102.315 156 99.0013 156C95.6931 156 92.9935 155.627 90.9186 154.933C88.8437 154.239 87.2134 153.331 86.0356 152.259C84.94 151.3 84.1101 150.089 83.622 148.737C83.225 147.459 83 146.284 83 145.217V141.001C83 138.757 83.6167 136.674 84.8526 134.856C86.0886 132.99 87.8274 131.709 90.0744 130.907C91.1965 130.535 92.488 130.162 93.9463 129.681C95.4072 129.198 96.7517 128.717 98.1015 128.293C99.4512 127.863 100.629 127.434 101.637 127.059C102.246 126.822 102.864 126.609 103.49 126.421L104.501 125.94C104.898 125.727 105.287 125.405 105.681 124.979C106.073 124.554 106.409 124.074 106.692 123.539C106.992 122.96 107.146 122.32 107.142 121.672V119.963C107.146 119.336 107.011 118.716 106.745 118.145C106.523 117.502 106.073 116.916 105.456 116.384C104.84 115.849 103.995 115.422 102.987 115.098C101.976 114.782 100.632 114.62 99.1125 114.62C95.9683 114.62 93.8907 115.212 92.7686 116.435C91.8158 117.505 91.2547 118.839 91.1436 120.333C91.1436 120.654 90.863 120.868 90.5243 120.868L83.6775 120.976C83.5149 120.976 83.3586 120.915 83.2426 120.804C83.1266 120.693 83.0603 120.542 83.0582 120.384V118.842C83.0582 117.343 83.3414 115.955 83.9581 114.62C84.5774 113.283 85.5328 112.165 86.8217 111.201C88.1132 110.242 89.7991 109.442 91.8185 108.908C93.7849 108.265 96.1986 108 99.004 108H98.9987Z" fill="#0A3871"/>
</g>
<rect x="0.5" y="0.5" width="215" height="202" rx="4.5" stroke="#7B61FF" stroke-dasharray="10 5"/>
<defs>
<clipPath id="clip0_2_702">
<rect width="216" height="203" rx="5" fill="white"/>
</clipPath>
</defs>
</svg>
